<svg width="240" height="240" viewBox="0 0 240 240" fill="none" xmlns="http://www.w3.org/2000/svg">
<path d="M115.841 116.163L45.396 83.8466L115.841 51L186.137 84.028L115.841 116.163Z" fill="#1B1D33" stroke="#1B1D33" stroke-width="0.669486" stroke-linejoin="round"/>
<g clip-path="url(#clip0_3454_12498)">
<mask id="path-2-inside-1_3454_12498" fill="white">
<path fill-rule="evenodd" clip-rule="evenodd" d="M165.757 70V154.606C165.757 155.929 164.686 157 163.365 157H70.1483C68.8272 157 67.7568 155.925 67.7568 154.606V70C71.6228 70 74.7568 66.866 74.7568 63C74.7568 59.134 71.6228 56 67.7568 56V38.3937C67.7568 37.0751 68.8272 36 70.1483 36H71.8174C71.8174 37.8281 73.2994 39.3115 75.1257 39.3115C76.9483 39.3115 78.4303 37.8281 78.4303 36H83.7147C83.7147 37.8281 85.1967 39.3115 87.023 39.3115C88.8493 39.3115 90.3239 37.8281 90.3239 36H95.6082C95.6082 37.8281 97.0902 39.3115 98.9165 39.3115C100.739 39.3115 102.221 37.8281 102.221 36H107.509C107.509 37.8281 108.987 39.3115 110.814 39.3115C112.64 39.3115 114.122 37.8281 114.122 36H119.406C119.406 37.8281 120.889 39.3115 122.715 39.3115C124.541 39.3115 126.019 37.8281 126.019 36H131.308C131.308 37.8281 132.79 39.3115 134.612 39.3115C136.438 39.3115 137.92 37.8281 137.92 36H143.205C143.205 37.8281 144.687 39.3115 146.513 39.3115C148.339 39.3115 149.821 37.8281 149.821 36H155.106C155.106 37.8281 156.588 39.3115 158.414 39.3115C160.237 39.3115 161.719 37.8281 161.719 36H163.388C164.686 36 165.757 37.0751 165.757 38.3937V56C161.891 56 158.757 59.134 158.757 63C158.757 66.866 161.891 70 165.757 70Z"/>
</mask>
<path fill-rule="evenodd" clip-rule="evenodd" d="M165.757 70V154.606C165.757 155.929 164.686 157 163.365 157H70.1483C68.8272 157 67.7568 155.925 67.7568 154.606V70C71.6228 70 74.7568 66.866 74.7568 63C74.7568 59.134 71.6228 56 67.7568 56V38.3937C67.7568 37.0751 68.8272 36 70.1483 36H71.8174C71.8174 37.8281 73.2994 39.3115 75.1257 39.3115C76.9483 39.3115 78.4303 37.8281 78.4303 36H83.7147C83.7147 37.8281 85.1967 39.3115 87.023 39.3115C88.8493 39.3115 90.3239 37.8281 90.3239 36H95.6082C95.6082 37.8281 97.0902 39.3115 98.9165 39.3115C100.739 39.3115 102.221 37.8281 102.221 36H107.509C107.509 37.8281 108.987 39.3115 110.814 39.3115C112.64 39.3115 114.122 37.8281 114.122 36H119.406C119.406 37.8281 120.889 39.3115 122.715 39.3115C124.541 39.3115 126.019 37.8281 126.019 36H131.308C131.308 37.8281 132.79 39.3115 134.612 39.3115C136.438 39.3115 137.92 37.8281 137.92 36H143.205C143.205 37.8281 144.687 39.3115 146.513 39.3115C148.339 39.3115 149.821 37.8281 149.821 36H155.106C155.106 37.8281 156.588 39.3115 158.414 39.3115C160.237 39.3115 161.719 37.8281 161.719 36H163.388C164.686 36 165.757 37.0751 165.757 38.3937V56C161.891 56 158.757 59.134 158.757 63C158.757 66.866 161.891 70 165.757 70Z" fill="white"/>
<path d="M165.757 70H166.507V69.25H165.757V70ZM67.7568 70V69.25H67.0068V70H67.7568ZM67.7568 56H67.0068V56.75H67.7568V56ZM71.8174 36H72.5674V35.25H71.8174V36ZM78.4303 36V35.25H77.6803V36H78.4303ZM83.7147 36H84.4647V35.25H83.7147V36ZM90.3239 36V35.25H89.5739V36H90.3239ZM95.6082 36H96.3582V35.25H95.6082V36ZM102.221 36V35.25H101.471V36H102.221ZM107.509 36H108.259V35.25H107.509V36ZM114.122 36V35.25H113.372V36H114.122ZM119.406 36H120.156V35.25H119.406V36ZM126.019 36V35.25H125.269V36H126.019ZM131.308 36H132.058V35.25H131.308V36ZM137.92 36V35.25H137.17V36H137.92ZM143.205 36H143.955V35.25H143.205V36ZM149.821 36V35.25H149.071V36H149.821ZM155.106 36H155.856V35.25H155.106V36ZM161.719 36V35.25H160.969V36H161.719ZM165.757 56V56.75H166.507V56H165.757ZM166.507 154.606V70H165.007V154.606H166.507ZM163.365 157.75C165.101 157.75 166.507 156.342 166.507 154.606H165.007C165.007 155.515 164.272 156.25 163.365 156.25V157.75ZM70.1483 157.75H163.365V156.25H70.1483V157.75ZM67.0068 154.606C67.0068 156.338 68.4115 157.75 70.1483 157.75V156.25C69.2428 156.25 68.5068 155.512 68.5068 154.606H67.0068ZM67.0068 70V154.606H68.5068V70H67.0068ZM74.0068 63C74.0068 66.4518 71.2086 69.25 67.7568 69.25V70.75C72.037 70.75 75.5068 67.2802 75.5068 63H74.0068ZM67.7568 56.75C71.2086 56.75 74.0068 59.5482 74.0068 63H75.5068C75.5068 58.7198 72.037 55.25 67.7568 55.25V56.75ZM67.0068 38.3937V56H68.5068V38.3937H67.0068ZM70.1483 35.25C68.4115 35.25 67.0068 36.6623 67.0068 38.3937H68.5068C68.5068 37.4879 69.2428 36.75 70.1483 36.75V35.25ZM71.8174 35.25H70.1483V36.75H71.8174V35.25ZM75.1257 38.5615C73.7143 38.5615 72.5674 37.4145 72.5674 36H71.0674C71.0674 38.2416 72.8845 40.0615 75.1257 40.0615V38.5615ZM77.6803 36C77.6803 37.4151 76.5329 38.5615 75.1257 38.5615V40.0615C77.3637 40.0615 79.1803 38.241 79.1803 36H77.6803ZM83.7147 35.25H78.4303V36.75H83.7147V35.25ZM87.023 38.5615C85.6116 38.5615 84.4647 37.4145 84.4647 36H82.9647C82.9647 38.2416 84.7818 40.0615 87.023 40.0615V38.5615ZM89.5739 36C89.5739 37.4167 88.4322 38.5615 87.023 38.5615V40.0615C89.2664 40.0615 91.0739 38.2394 91.0739 36H89.5739ZM95.6082 35.25H90.3239V36.75H95.6082V35.25ZM98.9165 38.5615C97.5051 38.5615 96.3582 37.4145 96.3582 36H94.8582C94.8582 38.2416 96.6753 40.0615 98.9165 40.0615V38.5615ZM101.471 36C101.471 37.4151 100.324 38.5615 98.9165 38.5615V40.0615C101.155 40.0615 102.971 38.241 102.971 36H101.471ZM107.509 35.25H102.221V36.75H107.509V35.25ZM110.814 38.5615C109.403 38.5615 108.259 37.4156 108.259 36H106.759C106.759 38.2405 108.572 40.0615 110.814 40.0615V38.5615ZM113.372 36C113.372 37.4145 112.225 38.5615 110.814 38.5615V40.0615C113.055 40.0615 114.872 38.2416 114.872 36H113.372ZM119.406 35.25H114.122V36.75H119.406V35.25ZM122.715 38.5615C121.303 38.5615 120.156 37.4145 120.156 36H118.656C118.656 38.2416 120.474 40.0615 122.715 40.0615V38.5615ZM125.269 36C125.269 37.4156 124.125 38.5615 122.715 38.5615V40.0615C124.957 40.0615 126.769 38.2405 126.769 36H125.269ZM131.308 35.25H126.019V36.75H131.308V35.25ZM134.612 38.5615C133.205 38.5615 132.058 37.4151 132.058 36H130.558C130.558 38.241 132.374 40.0615 134.612 40.0615V38.5615ZM137.17 36C137.17 37.4145 136.024 38.5615 134.612 38.5615V40.0615C136.853 40.0615 138.67 38.2416 138.67 36H137.17ZM143.205 35.25H137.92V36.75H143.205V35.25ZM146.513 38.5615C145.102 38.5615 143.955 37.4145 143.955 36H142.455C142.455 38.2416 144.272 40.0615 146.513 40.0615V38.5615ZM149.071 36C149.071 37.4145 147.925 38.5615 146.513 38.5615V40.0615C148.754 40.0615 150.571 38.2416 150.571 36H149.071ZM155.106 35.25H149.821V36.75H155.106V35.25ZM158.414 38.5615C157.003 38.5615 155.856 37.4145 155.856 36H154.356C154.356 38.2416 156.173 40.0615 158.414 40.0615V38.5615ZM160.969 36C160.969 37.4151 159.821 38.5615 158.414 38.5615V40.0615C160.652 40.0615 162.469 38.241 162.469 36H160.969ZM163.388 35.25H161.719V36.75H163.388V35.25ZM166.507 38.3937C166.507 36.6669 165.107 35.25 163.388 35.25V36.75C164.266 36.75 165.007 37.4833 165.007 38.3937H166.507ZM166.507 56V38.3937H165.007V56H166.507ZM159.507 63C159.507 59.5482 162.305 56.75 165.757 56.75V55.25C161.477 55.25 158.007 58.7198 158.007 63H159.507ZM165.757 69.25C162.305 69.25 159.507 66.4518 159.507 63H158.007C158.007 67.2802 161.477 70.75 165.757 70.75V69.25Z" fill="#1B1D33" mask="url(#path-2-inside-1_3454_12498)"/>
<path d="M81.7568 63L150.757 63" stroke="#1B1D33" stroke-width="2" stroke-dasharray="6 6"/>
<rect x="81.7573" y="83" width="65" height="6" fill="#B0B1B8"/>
<rect x="82" y="101" width="49" height="6" fill="#B0B1B8"/>
</g>
<path d="M52.7568 181.303V101.465L115.706 113.641L185.757 101.465V177.888L115.706 208L52.7568 181.303Z" fill="#B0B1B8"/>
<path d="M17 114.679L45.6496 84.0281L115.779 113.742L86.1819 147.403L17 114.679Z" fill="white" stroke="#1B1D33" stroke-width="0.75" stroke-linejoin="round"/>
<path d="M45.7568 171.79V84L115.757 113.747V201L45.7568 171.79Z" stroke="#1B1D33" stroke-width="0.75" stroke-linejoin="round"/>
<path d="M214.757 114.679L186.107 84.0281L115.765 113.707L145.575 147.403L214.757 114.679Z" fill="white" stroke="#1B1D33" stroke-width="0.75" stroke-linejoin="round"/>
<path d="M185.757 171.912V84L115.757 113.662V201L185.757 171.912Z" stroke="#1B1D33" stroke-width="0.75" stroke-linejoin="round"/>
<path d="M39.077 54.2003L33.6223 49.27" stroke="#1B1D33" stroke-width="0.750316"/>
<path d="M42.8419 52.5409L40.0321 40.7121" stroke="#1B1D33" stroke-width="0.750316"/>
<circle cx="41.3529" cy="66.1348" r="5.66113" transform="rotate(-93.1109 41.3529 66.1348)" fill="#EDEDF0"/>
<circle cx="51.6566" cy="52.4383" r="2.14997" transform="rotate(-93.1109 51.6566 52.4383)" fill="#EDEDF0"/>
<path d="M37.87 57.6586L20.6922 59.0192" stroke="#1B1D33" stroke-width="0.750316"/>
<circle cx="203.257" cy="153.5" r="6.5" fill="#EDEDF0"/>
<circle cx="193.257" cy="169.5" r="3.5" fill="#EDEDF0"/>
<path d="M215.489 168.8L232.2 174.698" stroke="#1B1D33" stroke-width="0.75"/>
<path d="M212.212 174.043L216.8 178.302" stroke="#1B1D33" stroke-width="0.75"/>
<path d="M207.625 176.991L211.229 190.753" stroke="#1B1D33" stroke-width="0.75"/>
<defs>
<clipPath id="clip0_3454_12498">
<rect width="98" height="121" fill="white" transform="translate(67.7568 36)"/>
</clipPath>
</defs>
</svg>
