<svg width="240" height="241" viewBox="0 0 240 241" fill="none" xmlns="http://www.w3.org/2000/svg">
<g clip-path="url(#clip0_2917_11223)">
<circle cx="38.9954" cy="61.4229" r="5.4883" fill="#EDEDF0"/>
<circle cx="23.0224" cy="62.3239" r="2.62128" fill="#EDEDF0"/>
<circle cx="27.2817" cy="74.4473" r="2.29362" fill="#EDEDF0"/>
<path d="M21.7113 50.8558L20.7283 56.426" stroke="#1B1D33" stroke-width="0.75"/>
<path d="M12.2092 54.1323L16.7965 57.7366" stroke="#1B1D33" stroke-width="0.75"/>
<path d="M9.58813 63.6346L15.8137 62.9792" stroke="#1B1D33" stroke-width="0.75"/>
<circle cx="216.805" cy="197.857" r="10.4851" fill="#EDEDF0"/>
<circle cx="201.732" cy="224.07" r="5.89787" fill="#EDEDF0"/>
<path d="M230.567 218.172L247.277 224.07" stroke="#1B1D33" stroke-width="0.75"/>
<path d="M227.29 223.415L231.877 227.674" stroke="#1B1D33" stroke-width="0.75"/>
<path d="M222.702 226.364L226.307 240.125" stroke="#1B1D33" stroke-width="0.75"/>
<path d="M58.4242 210.382L44.8239 107.762L129.722 48.4152L210.087 107.762L197.312 210.382H58.4242Z" fill="#B0B1B8"/>
<path d="M30.4006 94.1614L114.887 29.8694L200.61 94.1614M30.4006 94.1614L44.0009 196.369H187.422L200.61 94.1614M30.4006 94.1614L118.596 148.975L200.61 94.1614" stroke="#1B1D33" stroke-width="0.75"/>
<path d="M200.609 94.1615H29.5754L118.595 148.975L200.609 94.1615Z" fill="#1B1D33"/>
<path d="M55.9514 39.7605L56.3635 110.647L117.771 150.211L171.347 113.944V39.7605H55.9514Z" fill="white" stroke="#1B1D33" stroke-width="0.75"/>
<circle cx="116.122" cy="98.2827" r="25.9641" fill="#E5E6EB"/>
<path d="M44.0001 196.369L117.771 130.429L187.009 195.957" stroke="#1B1D33" stroke-width="0.75"/>
<circle cx="113.65" cy="93.3371" r="25.5891" stroke="#1B1D33" stroke-width="0.75"/>
<path d="M113.482 83.5896C116.19 83.5896 118.344 84.3985 119.944 86.0162C121.456 87.5285 122.213 89.4539 122.213 91.7926C122.213 93.6565 121.623 95.3534 120.445 96.8832C119.302 98.29 118.08 98.9933 116.779 98.9933C115.706 98.9933 115.126 98.3867 115.038 97.1734C114.053 98.4218 112.893 99.0461 111.557 99.0461C110.466 99.0461 109.605 98.6856 108.972 97.9647C108.321 97.2437 107.996 96.3293 107.996 95.2215C107.996 93.1466 108.611 91.4058 109.842 89.999C111.003 88.6099 112.365 87.9153 113.93 87.9153C115.232 87.9153 116.093 88.6099 116.515 89.999L116.964 88.4165H118.282L116.383 95.5908C116.19 96.1711 116.093 96.6722 116.093 97.0942C116.093 97.569 116.366 97.8064 116.911 97.8064C117.773 97.8064 118.643 97.2701 119.522 96.1974C120.524 94.9314 121.026 93.4631 121.026 91.7926C121.026 89.8232 120.357 88.1703 119.021 86.8339C117.597 85.4623 115.724 84.7765 113.403 84.7765C110.924 84.7765 108.866 85.603 107.231 87.2559C105.578 88.8912 104.751 90.9662 104.751 93.4807C104.751 96.1711 105.552 98.2812 107.152 99.811C108.734 101.288 110.809 102.027 113.376 102.027C115.328 102.027 117.043 101.657 118.52 100.919C119.804 100.251 120.832 99.3714 121.606 98.2812H123.057C122.125 99.811 120.823 100.998 119.153 101.842C117.43 102.721 115.504 103.161 113.376 103.161C110.387 103.161 107.969 102.282 106.123 100.523C104.277 98.7296 103.354 96.3645 103.354 93.4279C103.354 90.6672 104.303 88.3549 106.202 86.491C108.119 84.5567 110.545 83.5896 113.482 83.5896ZM114.115 89.2077C112.884 89.2077 111.812 89.7704 110.897 90.8958C109.912 92.0564 109.42 93.5071 109.42 95.2479C109.42 96.0392 109.613 96.6546 110 97.0942C110.405 97.5866 110.95 97.8328 111.636 97.8328C112.392 97.8328 113.139 97.5163 113.878 96.8832C114.563 96.303 115.012 95.6435 115.223 94.905L115.829 92.6103C116.005 91.9069 116.093 91.5025 116.093 91.397C116.093 90.887 115.926 90.4123 115.592 89.9727C115.24 89.4627 114.748 89.2077 114.115 89.2077Z" fill="#1B1D33"/>
</g>
<defs>
<clipPath id="clip0_2917_11223">
<rect width="240" height="240" fill="white" transform="translate(0 0.125488)"/>
</clipPath>
</defs>
</svg>
