<svg width="241" height="240" viewBox="0 0 241 240" fill="none" xmlns="http://www.w3.org/2000/svg">
<path d="M115.776 132.163L45.3301 99.8466L115.776 67L186.071 100.028L115.776 132.163Z" fill="#1B1D33" stroke="#1B1D33" stroke-width="0.669486" stroke-linejoin="round"/>
<path d="M65.6909 63L66.0512 138.622L119.728 180.83L166.56 142.139V63H65.6909Z" fill="white" stroke="#1B1D33" stroke-width="0.669486"/>
<path d="M52.6909 197.303V117.465L115.64 129.641L185.691 117.465V193.888L115.64 224L52.6909 197.303Z" fill="#B0B1B8"/>
<path d="M16.9341 130.679L45.5836 100.028L115.713 129.742L86.116 163.403L16.9341 130.679Z" fill="white" stroke="#1B1D33" stroke-width="0.669486" stroke-linejoin="round"/>
<path d="M45.6909 187.79V100L115.691 129.747V217L45.6909 187.79Z" stroke="#1B1D33" stroke-width="0.669486" stroke-linejoin="round"/>
<path d="M214.691 130.679L186.041 100.028L115.699 129.707L145.509 163.403L214.691 130.679Z" fill="white" stroke="#1B1D33" stroke-width="0.669486" stroke-linejoin="round"/>
<path d="M185.691 187.912V100L115.691 129.662V217L185.691 187.912Z" stroke="#1B1D33" stroke-width="0.669486" stroke-linejoin="round"/>
<path d="M87.6909 112.5C99.6909 111.333 123.491 107 122.691 98.9999C121.691 88.9999 100.691 80.5001 97.1909 90C95.1023 95.6691 120.873 109.697 137.691 94C152.691 80 162.191 63.5 164.191 52.5" stroke="#1B1D33" stroke-width="0.75" stroke-dasharray="1.5 1.5"/>
<path d="M154.029 50L138.421 17L185.691 29.0405L175.434 34.8378L146.002 21.0135L170.975 37.9595L154.029 50Z" stroke="#1B1D33" stroke-width="0.75" stroke-linejoin="round"/>
<path d="M175.434 34.8379L173.65 50.0001L164.286 42.8649" stroke="#1B1D33" stroke-width="0.75" stroke-linejoin="round"/>
<circle cx="76.6909" cy="75" r="3" fill="#E5E6EB"/>
<circle cx="86.6909" cy="75" r="3" fill="#E5E6EB"/>
<circle cx="96.6909" cy="75" r="3" fill="#E5E6EB"/>
<path d="M56.3803 53.5873L52.2144 50.5925" stroke="#1B1D33" stroke-width="0.750316"/>
<path d="M59.6845 50.6628L55.8198 39.1354" stroke="#1B1D33" stroke-width="0.750316"/>
<path d="M54.4481 57.9842L40.7445 55.7347" stroke="#1B1D33" stroke-width="0.750316"/>
<circle cx="204.191" cy="190.5" r="6.5" fill="#EDEDF0"/>
<circle cx="194.191" cy="206.5" r="3.5" fill="#EDEDF0"/>
<path d="M216.423 205.8L233.134 211.698" stroke="#1B1D33" stroke-width="0.75"/>
<path d="M213.146 211.043L217.734 215.302" stroke="#1B1D33" stroke-width="0.75"/>
<path d="M208.559 213.991L212.163 227.753" stroke="#1B1D33" stroke-width="0.75"/>
</svg>
