<svg width="240" height="240" viewBox="0 0 240 240" fill="none" xmlns="http://www.w3.org/2000/svg">
<path d="M41.3824 47.0092L37.8334 40.5697" stroke="#1B1D33" stroke-width="0.750316"/>
<path d="M45.4826 46.6682L46.6836 34.5697" stroke="#1B1D33" stroke-width="0.750316"/>
<circle cx="38.5582" cy="63.7787" r="6.71228" transform="rotate(-74.0795 38.5582 63.7787)" fill="#EDEDF0"/>
<circle cx="57.3423" cy="49.7821" r="3.75456" transform="rotate(-74.0795 57.3423 49.7821)" fill="#EDEDF0"/>
<path d="M39.1136 49.8848L22.431 45.5697" stroke="#1B1D33" stroke-width="0.750316"/>
<circle cx="189.902" cy="191.07" r="6.5" fill="#EDEDF0"/>
<circle cx="199.902" cy="179.07" r="3.5" fill="#EDEDF0"/>
<circle cx="178.978" cy="178.432" r="2.57568" fill="#EDEDF0"/>
<path d="M207.285 189.672L223.996 195.57" stroke="#1B1D33" stroke-width="0.75"/>
<path d="M204.009 194.915L208.596 199.174" stroke="#1B1D33" stroke-width="0.75"/>
<path d="M199.421 197.864L203.025 211.625" stroke="#1B1D33" stroke-width="0.75"/>
<path d="M92.6233 40V56.4502V170.574L189.268 179.313L196.98 46.1688L92.6233 40Z" fill="#B0B1B8"/>
<path d="M87.4824 45.1407V61.591V175.715L183.614 183.94L190.811 50.7955L87.4824 45.1407Z" stroke="#1B1D33" stroke-width="0.75"/>
<path d="M155.614 51.1305L173.014 193.699L61.8311 204.535L48.4083 60.9806L155.614 51.1305Z" fill="white" stroke="#1B1D33" stroke-width="0.75"/>
<path d="M147.115 133.561L165.107 70.8442L216 83.696L199.55 146.927L147.115 133.561Z" fill="#E5E6EB" stroke="#1B1D33" stroke-width="0.75"/>
<path d="M156.882 116.082L168.191 78.0413L209.317 88.8367L199.035 127.392L156.882 116.082Z" fill="white" stroke="#1B1D33" stroke-width="0.75"/>
<path d="M205.718 101.688L158.424 110.428L156.882 116.082L199.035 127.392L205.718 101.688Z" fill="#B0B1B8" stroke="#1B1D33" stroke-width="0.75"/>
<path d="M111.549 154.343C124.423 152.714 133.54 140.958 131.912 128.084C130.283 115.209 118.527 106.093 105.653 107.721C92.7784 109.349 83.6617 121.105 85.2898 133.98C86.918 146.854 98.6745 155.971 111.549 154.343Z" fill="#E5E6EB"/>
<path d="M127.439 125.536C129.076 138.475 119.913 150.29 106.974 151.927C94.0352 153.563 82.2195 144.4 80.5831 131.461C78.9468 118.522 88.1094 106.707 101.048 105.07C113.987 103.434 125.803 112.597 127.439 125.536Z" stroke="#1B1D33" stroke-width="0.75" stroke-miterlimit="10"/>
<path d="M100.919 136.583L99.038 121.707C98.9358 120.899 99.7947 120.317 100.508 120.711L111.626 126.862C112.216 127.188 112.318 127.994 111.828 128.457L102.59 137.182C101.998 137.741 101.021 137.391 100.919 136.583Z" fill="#1B1D33"/>
<rect x="69.5908" y="186.665" width="67.8572" height="8.22512" transform="rotate(-6.28062 69.5908 186.665)" fill="#E5E6EB"/>
<path d="M58.6946 74.7312L126.349 67.7598" stroke="#1B1D33" stroke-width="0.75"/>
<path d="M63.3794 80.8383L94.386 77.6432" stroke="#1B1D33" stroke-width="0.75"/>
</svg>
