<svg width="240" height="240" viewBox="0 0 240 240" fill="none" xmlns="http://www.w3.org/2000/svg">
<path d="M135.831 89.06C143.668 73.3859 162.619 43.5903 173.981 43.5903C185.758 43.5903 184.591 54.1677 182.311 58.9232C180.815 62.0441 176.656 67.8488 171.545 67.8488C166.392 67.8488 158.295 56.7148 170.441 41.4401C180.158 29.2204 188.967 25.4293 192.157 25.0613" stroke="#1B1D33" stroke-width="0.75" stroke-dasharray="1.5 1.5"/>
<path d="M42.415 88.6484V82.9127C42.415 77.9422 46.4445 73.9127 51.415 73.9127H185.822V180.951H168.168" stroke="#1B1D33" stroke-width="0.75"/>
<rect x="49.3535" y="79.1206" width="129.49" height="97.3366" fill="#B0B1B8"/>
<path d="M168.18 124.049H180.78" stroke="#1B1D33" stroke-width="0.75"/>
<path d="M168.18 146.092H180.78" stroke="#1B1D33" stroke-width="0.75"/>
<path d="M168.18 168.135H180.78" stroke="#1B1D33" stroke-width="0.75"/>
<rect x="185.822" y="113.519" width="30.9597" height="27.6729" stroke="#1B1D33" stroke-width="0.75" stroke-linejoin="round"/>
<circle cx="205.089" cy="128.863" r="6.5968" fill="#E5E6EB"/>
<circle cx="204.243" cy="126.981" r="6.48761" stroke="#1B1D33" stroke-width="0.75"/>
<path d="M200.678 10.1599C202.671 10.6507 207.266 11.9267 209.695 13.1045C212.124 14.2823 212.606 15.9462 211.937 16.9322C211.091 18.1775 209.448 19.9923 199.326 14.8691" stroke="#1B1D33" stroke-width="0.6"/>
<path d="M204.907 17.3508C205.867 19.5823 205.631 22.2949 203.018 22.2948C200.788 22.2947 198.572 19.7566 197.287 18.2793" stroke="#1B1D33" stroke-width="0.6"/>
<path d="M201.558 10.9567C200.128 9.48342 196.707 6.1613 194.464 4.65872C192.221 3.15614 190.541 3.58019 190.028 4.65603C189.38 6.01482 188.643 8.34933 198.175 14.5006" stroke="#1B1D33" stroke-width="0.6"/>
<path d="M193.215 10.9357C190.804 11.2331 188.582 12.8065 189.9 15.0617C191.027 16.9871 194.336 17.6191 196.26 17.982" stroke="#1B1D33" stroke-width="0.6"/>
<path d="M201.845 5.27954L202.31 7.94554L204.75 6.79985" stroke="#1B1D33" stroke-width="0.6" stroke-linecap="round"/>
<path d="M197.683 16.1232C196.175 16.9747 195.565 18.6382 195.413 19.3146C195.326 19.9418 195.684 20.4175 196.308 20.3186C197.436 20.1399 198.385 17.8739 198.394 16.4661C199.952 15.5371 200.34 13.9071 200.34 12.6667C201.355 12.1889 201.976 10.7506 201.917 9.86344C202.702 10.0435 203.466 8.32478 202.44 7.76761C201.413 7.21043 200.494 8.68266 201.108 9.43334C200.159 9.95493 199.636 11.5599 199.694 12.3694C198.115 13.3389 197.59 15.2362 197.683 16.1232Z" fill="#1B1D33"/>
<path d="M31.3391 31.7374C32.1772 30.5843 34.2018 27.9646 35.5958 26.7114C36.9897 25.4581 38.1858 25.5845 38.6442 26.2735C39.2232 27.1437 39.9593 28.6758 34.0126 33.8407" stroke="#1B1D33" stroke-width="0.75"/>
<path d="M37.0708 30.9027C38.7572 30.8701 40.4393 31.733 39.7545 33.4128C39.1698 34.8469 36.9571 35.6066 35.6707 36.0451" stroke="#1B1D33" stroke-width="0.75"/>
<path d="M31.7321 31.6042C30.4101 32.1375 27.3776 33.4662 25.8237 34.5145C24.2697 35.5629 24.1021 36.7539 24.6594 37.3657C25.3632 38.1385 26.6709 39.2243 33.1241 34.708" stroke="#1B1D33" stroke-width="0.75"/>
<path d="M29.5321 36.9627C29.0914 38.5908 29.5206 40.432 31.3162 40.1751C32.8493 39.9558 34.1231 37.9934 34.8606 36.8518" stroke="#1B1D33" stroke-width="0.75"/>
<path d="M27.5715 29.0896L29.4074 29.4896L29.3102 27.6207" stroke="#1B1D33" stroke-width="0.75" stroke-linecap="round"/>
<path d="M34.271 35.8074C34.4591 37.2822 35.5837 38.306 36.0723 38.6455C36.5425 38.9183 37.0367 38.7877 37.1603 38.2597C37.3838 37.3051 35.89 35.817 34.774 35.3532C34.5403 33.8141 33.3704 32.9773 32.3845 32.5754C32.3336 31.6139 31.3916 30.6541 30.6671 30.4139C31.0646 29.8482 29.9461 28.684 29.1707 29.3192C28.3953 29.9543 29.2676 31.1621 30.0632 30.9174C30.1705 31.8403 31.2767 32.7764 31.9389 32.9924C32.1978 34.5621 33.5358 35.594 34.271 35.8074Z" fill="#1B1D33"/>
<path d="M92.845 42.4458C88.1476 47.0057 80.6905 60.7704 88.4412 79.3494" stroke="#1B1D33" stroke-width="0.75" stroke-dasharray="1.5 1.5"/>
<path d="M41.7607 42.4458C52.0364 43.4001 73.5859 52.1805 77.5786 79.6674" stroke="#1B1D33" stroke-width="0.75" stroke-dasharray="1.5 1.5"/>
<mask id="path-24-inside-1_2917_11229" fill="white">
<path fill-rule="evenodd" clip-rule="evenodd" d="M42.0055 83.0549H41.9971V192.503H168.18V93.3428H52.711C46.9366 93.3428 42.2292 88.7745 42.0055 83.0549Z"/>
</mask>
<path fill-rule="evenodd" clip-rule="evenodd" d="M42.0055 83.0549H41.9971V192.503H168.18V93.3428H52.711C46.9366 93.3428 42.2292 88.7745 42.0055 83.0549Z" fill="white"/>
<path d="M41.9971 83.0549V82.3049H41.2471V83.0549H41.9971ZM42.0055 83.0549L42.755 83.0256L42.7268 82.3049H42.0055V83.0549ZM41.9971 192.503H41.2471V193.253H41.9971V192.503ZM168.18 192.503V193.253H168.93V192.503H168.18ZM168.18 93.3428H168.93V92.5928H168.18V93.3428ZM41.9971 83.8049H42.0055V82.3049H41.9971V83.8049ZM42.7471 192.503V83.0549H41.2471V192.503H42.7471ZM168.18 191.753H41.9971V193.253H168.18V191.753ZM167.43 93.3428V192.503H168.93V93.3428H167.43ZM168.18 92.5928H52.711V94.0928H168.18V92.5928ZM52.711 92.5928C47.341 92.5928 42.9629 88.3443 42.755 83.0256L41.2561 83.0842C41.4954 89.2048 46.5322 94.0928 52.711 94.0928V92.5928Z" fill="#1B1D33" mask="url(#path-24-inside-1_2917_11229)"/>
<mask id="path-26-inside-2_2917_11229" fill="white">
<path fill-rule="evenodd" clip-rule="evenodd" d="M42.0055 83.0549H41.9971V192.503H168.18V93.3428H52.711C46.9366 93.3428 42.2292 88.7745 42.0055 83.0549Z"/>
</mask>
<path d="M41.9971 83.0549V82.3049H41.2471V83.0549H41.9971ZM42.0055 83.0549L42.755 83.0256L42.7268 82.3049H42.0055V83.0549ZM41.9971 192.503H41.2471V193.253H41.9971V192.503ZM168.18 192.503V193.253H168.93V192.503H168.18ZM168.18 93.3428H168.93V92.5928H168.18V93.3428ZM41.9971 83.8049H42.0055V82.3049H41.9971V83.8049ZM42.7471 192.503V83.0549H41.2471V192.503H42.7471ZM168.18 191.753H41.9971V193.253H168.18V191.753ZM167.43 93.3428V192.503H168.93V93.3428H167.43ZM168.18 92.5928H52.711V94.0928H168.18V92.5928ZM52.711 92.5928C47.341 92.5928 42.9629 88.3443 42.755 83.0256L41.2561 83.0842C41.4954 89.2048 46.5322 94.0928 52.711 94.0928V92.5928Z" fill="#1B1D33" mask="url(#path-26-inside-2_2917_11229)"/>
<rect x="27.5713" y="152.75" width="77.8221" height="46.9201" fill="white" stroke="#1B1D33" stroke-width="0.75" stroke-linejoin="round"/>
<rect x="30.2207" y="155.211" width="74.7884" height="44.091" fill="#E5E6EB"/>
<rect x="34.6357" y="165.944" width="12.3056" height="6.76578" fill="white"/>
<rect x="34.6357" y="191.006" width="11.9719" height="1.65552" fill="#1B1D33"/>
<rect x="51.085" y="191.006" width="11.9719" height="1.65552" fill="#1B1D33"/>
<rect x="67.5332" y="191.006" width="11.9719" height="1.65552" fill="#1B1D33"/>
<rect x="83.9814" y="191.006" width="11.9719" height="1.65552" fill="#1B1D33"/>
<circle cx="93.1143" cy="165.944" r="5.21004" fill="white"/>
<circle cx="86.8214" cy="165.944" r="5.21004" fill="#F7F8FA"/>
<path d="M145.405 77.1757L59.6279 93.7385H151.158L145.405 77.1757Z" fill="#E5E6EB" stroke="#1B1D33" stroke-width="0.75"/>
<path d="M47.9678 106.935H114.119" stroke="#1B1D33" stroke-width="0.75"/>
<path d="M47.9678 116.474H79.1386" stroke="#1B1D33" stroke-width="0.75"/>
<circle cx="193.85" cy="189.068" r="6.5" fill="#EDEDF0"/>
<circle cx="179.1" cy="200.37" r="3.5" fill="#EDEDF0"/>
<circle cx="173.025" cy="188.431" r="2.57568" fill="#EDEDF0"/>
<path d="M201.333 199.67L218.043 205.568" stroke="#1B1D33" stroke-width="0.75"/>
<path d="M198.056 204.913L202.643 209.173" stroke="#1B1D33" stroke-width="0.75"/>
<path d="M193.469 207.862L197.073 221.624" stroke="#1B1D33" stroke-width="0.75"/>
<circle cx="154.41" cy="144.532" r="4.93866" fill="#1B1D33"/>
</svg>
