<svg width="240" height="240" viewBox="0 0 240 240" fill="none" xmlns="http://www.w3.org/2000/svg">
<path d="M36.2556 201.035L42.4345 77.5947L54.296 77.5947H68.4034H169.62L183.841 199.295L192.36 205.763L49.6462 205.763L36.2556 201.035Z" fill="#B0B1B8"/>
<path d="M63.2062 199.759L60.3113 68.2794H163.168L176.147 199.759H63.2062Z" stroke="#1B1D33" stroke-width="0.75" stroke-linejoin="round"/>
<path d="M146.393 85.0551V63.788C146.393 46.4411 132.331 32.3787 114.984 32.3787V32.3787C97.6371 32.3787 83.5747 46.4411 83.5747 63.788V85.0551" stroke="#1B1D33" stroke-width="0.75"/>
<path d="M120.022 68.2686V60.4865C120.022 44.963 107.437 32.3787 91.914 32.3787V32.3787C76.3905 32.3787 63.8062 44.963 63.8062 60.4865V68.2686" stroke="#1B1D33" stroke-width="0.75"/>
<path d="M25.5959 199.758H63.2234L60.4072 68.2686H46.9941H35.3861L25.5959 199.758Z" stroke="#1B1D33" stroke-width="0.75" stroke-linejoin="round"/>
<path d="M47.8341 68.2686L44.922 185.663" stroke="#1B1D33" stroke-width="0.75" stroke-linejoin="round"/>
<path d="M25.5957 199.759L44.8956 185.407L63.2236 199.759" stroke="#1B1D33" stroke-width="0.75" stroke-linejoin="round"/>
<circle cx="83.5747" cy="86.8352" r="3.25488" fill="#1B1D33"/>
<circle cx="146.394" cy="86.8352" r="3.25488" fill="#1B1D33"/>
<circle cx="180.92" cy="65.0594" r="5.4883" transform="rotate(78.189 180.92 65.0594)" fill="#EDEDF0"/>
<circle cx="176.769" cy="49.6091" r="2.62128" transform="rotate(78.189 176.769 49.6091)" fill="#EDEDF0"/>
<circle cx="165.774" cy="56.2597" r="2.29362" transform="rotate(78.189 165.774 56.2597)" fill="#EDEDF0"/>
<path d="M187.726 45.9784L182.072 46.1564" stroke="#1B1D33" stroke-width="0.75"/>
<path d="M182.573 37.3481L179.984 42.576" stroke="#1B1D33" stroke-width="0.75"/>
<path d="M172.736 36.7275L174.652 42.6871" stroke="#1B1D33" stroke-width="0.75"/>
<path d="M136.143 99.1758C135.504 101.725 135.557 107.474 140.879 110.076" stroke="#1B1D33" stroke-width="0.75" stroke-dasharray="1.5 1.5"/>
<path fill-rule="evenodd" clip-rule="evenodd" d="M144.638 101.452L137.681 117.852L150.547 146.155L172.232 136.043L160.415 108.279L144.638 101.452ZM149.054 117.46C151.18 117.46 152.903 115.737 152.903 113.611C152.903 111.486 151.18 109.763 149.054 109.763C146.929 109.763 145.206 111.486 145.206 113.611C145.206 115.737 146.929 117.46 149.054 117.46Z" fill="white"/>
<path d="M137.681 117.852L137.336 117.705L137.272 117.857L137.34 118.007L137.681 117.852ZM144.638 101.452L144.786 101.108L144.44 100.958L144.292 101.305L144.638 101.452ZM150.547 146.155L150.206 146.31L150.362 146.655L150.705 146.495L150.547 146.155ZM172.232 136.043L172.391 136.383L172.72 136.23L172.578 135.896L172.232 136.043ZM160.415 108.279L160.76 108.133L160.701 107.995L160.564 107.935L160.415 108.279ZM138.026 117.998L144.983 101.598L144.292 101.305L137.336 117.705L138.026 117.998ZM150.888 146L138.023 117.696L137.34 118.007L150.206 146.31L150.888 146ZM172.074 135.703L150.388 145.815L150.705 146.495L172.391 136.383L172.074 135.703ZM160.07 108.426L171.887 136.19L172.578 135.896L160.76 108.133L160.07 108.426ZM144.489 101.796L160.266 108.624L160.564 107.935L144.786 101.108L144.489 101.796ZM152.528 113.611C152.528 115.529 150.973 117.085 149.054 117.085V117.835C151.387 117.835 153.278 115.944 153.278 113.611H152.528ZM149.054 110.138C150.973 110.138 152.528 111.693 152.528 113.611H153.278C153.278 111.278 151.387 109.388 149.054 109.388V110.138ZM145.581 113.611C145.581 111.693 147.136 110.138 149.054 110.138V109.388C146.722 109.388 144.831 111.278 144.831 113.611H145.581ZM149.054 117.085C147.136 117.085 145.581 115.529 145.581 113.611H144.831C144.831 115.944 146.722 117.835 149.054 117.835V117.085Z" fill="black"/>
<path d="M146.807 86.9293C151.153 87.7077 156.796 107.231 149.078 114.236" stroke="#1B1D33" stroke-width="0.75" stroke-dasharray="1.5 1.5"/>
<rect x="68.9023" y="191.095" width="87.5425" height="2.97453" fill="#E5E6EB"/>
<rect x="68.9023" y="185.663" width="37.8037" height="1.23063" fill="#E5E6EB"/>
</svg>
