<svg width="240" height="241" viewBox="0 0 240 241" fill="none" xmlns="http://www.w3.org/2000/svg">
<path d="M215.481 214.485H131.616C129.663 214.485 127.986 213.08 127.782 211.138C126.558 199.441 127.344 174.807 146.677 150.96C169.033 123.383 198.6 120.067 215.878 121.072C217.929 121.191 219.481 122.921 219.481 124.976V210.485C219.481 212.694 217.69 214.485 215.481 214.485Z" fill="#B0B1B8"/>
<path d="M46.9274 103.184L41.7524 100.071" stroke="#1B1D33" stroke-width="0.75"/>
<path d="M50.5229 99.4354L44.8812 86.2838" stroke="#1B1D33" stroke-width="0.75"/>
<circle cx="54.9437" cy="120.849" r="7.36107" transform="rotate(-102.967 54.9437 120.849)" fill="#EDEDF0"/>
<ellipse cx="64.6409" cy="102.704" rx="3.66112" ry="3.69928" transform="rotate(-102.967 64.6409 102.704)" fill="#EDEDF0"/>
<path d="M45.0833 108.528L28.7911 107.206" stroke="#1B1D33" stroke-width="0.75"/>
<rect x="46.1191" y="46.2142" width="173.362" height="11.2757" fill="#E5E6EB"/>
<path d="M153.222 208.993C153.222 202.492 158.492 197.222 164.993 197.222H208.312V214.485H153.222V208.993Z" fill="#B0B1B8" stroke="#1B1D33" stroke-width="0.75"/>
<path d="M11.1274 214.485H235.556" stroke="#1B1D33" stroke-width="0.75"/>
<rect x="175.506" y="61.8397" width="25.7431" height="135.668" rx="4.70824" fill="white" stroke="#1B1D33" stroke-width="0.75"/>
<rect x="179.758" y="62.2147" width="17.1582" height="134.918" fill="#E5E6EB" stroke="#1B1D33" stroke-width="0.75"/>
<rect x="168.176" y="89.475" width="40.3208" height="6.76915" fill="#B0B1B8" stroke="#1B1D33" stroke-width="0.75"/>
<rect x="168.176" y="138.395" width="40.3208" height="6.76915" fill="#B0B1B8" stroke="#1B1D33" stroke-width="0.75"/>
<rect x="46.4941" y="44.5897" width="172.612" height="8.69704" stroke="#1B1D33" stroke-width="0.75"/>
<path d="M46.1191 55.8442H219.481" stroke="#1B1D33" stroke-width="0.75"/>
<path d="M168.176 31.5129H193.034C200.789 31.5129 207.075 37.7993 207.075 45.5539V66.3636H168.176V31.5129Z" fill="#B0B1B8" stroke="#1B1D33" stroke-width="0.75"/>
<path d="M103.785 58.8313V94.5861C104.679 94.7917 106.673 95.6687 106.064 97.8435C105.508 99.8292 103.17 99.6939 102.144 99.337" stroke="#1B1D33" stroke-width="0.75"/>
<path d="M92.333 110.979L103.331 99.5764L113.513 110.979" stroke="#1B1D33" stroke-width="0.75"/>
<rect x="74.0822" y="110.972" width="56.5018" height="103.475" rx="4.70824" fill="white" stroke="#1B1D33" stroke-width="0.75"/>
<rect x="77.8101" y="115.844" width="49.047" height="86.1742" rx="3.53118" fill="#E5E6EB" stroke="#1B1D33" stroke-width="0.75"/>
<circle cx="102.713" cy="208.507" r="3.69054" fill="white" stroke="#1B1D33" stroke-width="0.75"/>
<path d="M107.898 147.729L96.6669 158.96" stroke="#1B1D33" stroke-width="0.75"/>
<path d="M107.898 158.96L96.6671 147.729" stroke="#1B1D33" stroke-width="0.75"/>
<path d="M92.975 61.4647V53.1493H114.201V61.4647H92.975Z" fill="#E5E6EB" stroke="#1B1D33" stroke-width="0.75"/>
<circle cx="99.3795" cy="57.307" r="2.44303" fill="#F7F8FA" stroke="#1B1D33" stroke-width="0.75"/>
<circle cx="107.797" cy="57.307" r="2.44303" fill="#F7F8FA" stroke="#1B1D33" stroke-width="0.75"/>
<path fill-rule="evenodd" clip-rule="evenodd" d="M41.4234 182.438C41.4762 182.289 41.6175 182.189 41.7759 182.189H45.9055C46.0639 182.189 46.2052 182.289 46.258 182.438L56.8157 212.291H30.8657L41.4234 182.438Z" fill="#B0B1B8"/>
<mask id="mask0_2917_11224" style="mask-type:luminance" maskUnits="userSpaceOnUse" x="30" y="182" width="27" height="31">
<path fill-rule="evenodd" clip-rule="evenodd" d="M41.4234 182.438C41.4762 182.289 41.6175 182.189 41.7759 182.189H45.9055C46.0639 182.189 46.2052 182.289 46.258 182.438L56.8157 212.291H30.8657L41.4234 182.438Z" fill="white"/>
</mask>
<g mask="url(#mask0_2917_11224)">
<rect x="33.979" y="188.418" width="20.76" height="3.114" fill="#E5E6EB"/>
<rect x="33.9792" y="194.645" width="20.76" height="3.11399" fill="#E5E6EB"/>
</g>
<rect x="28.791" y="211.371" width="30.102" height="3.11399" rx="0.186932" fill="#1B1D33"/>
</svg>
