<svg width="240" height="241" viewBox="0 0 240 241" fill="none" xmlns="http://www.w3.org/2000/svg">
<rect x="54.4558" y="62.1323" width="108.216" height="146.85" fill="#B0B1B8"/>
<path d="M67.9827 184.126H179.888V62.3831L150.989 31.6399H67.9827V184.126Z" fill="white" stroke="#1B1D33" stroke-width="0.75"/>
<path d="M76.5906 45.7817H128.239" stroke="black" stroke-width="0.75"/>
<path d="M76.5906 56.2345H106.104" stroke="black" stroke-width="0.75"/>
<path d="M76.5906 165.68H96.2663" stroke="black" stroke-width="0.75"/>
<path d="M76.5906 175.518H114.712" stroke="black" stroke-width="0.75"/>
<path d="M76.5906 66.0723H114.712" stroke="black" stroke-width="0.75"/>
<path d="M216.009 180.039L179.86 155.877L173.84 163.657L210.808 187.829L216.009 180.039Z" fill="#B0B1B8"/>
<path d="M68.5975 53.775H45.2327V201.222H157.138L157.138 184.147" stroke="#1B1D33" stroke-width="0.75"/>
<path d="M180.754 152.719L218.852 178.086L213.717 186.868L175.069 162.103" stroke="#1B1D33" stroke-width="0.75"/>
<path fill-rule="evenodd" clip-rule="evenodd" d="M153.617 172.408C169.845 172.408 183.001 159.252 183.001 143.024C183.001 126.796 169.845 113.64 153.617 113.64C137.388 113.64 124.233 126.796 124.233 143.024C124.233 159.252 137.388 172.408 153.617 172.408ZM153.617 166.628C166.653 166.628 177.22 156.06 177.22 143.024C177.22 129.988 166.653 119.42 153.617 119.42C140.581 119.42 130.013 129.988 130.013 143.024C130.013 156.06 140.581 166.628 153.617 166.628Z" fill="#B0B1B8"/>
<path d="M182.626 143.024C182.626 159.045 169.638 172.033 153.617 172.033V172.783C170.052 172.783 183.376 159.46 183.376 143.024H182.626ZM153.617 114.015C169.638 114.015 182.626 127.003 182.626 143.024H183.376C183.376 126.589 170.052 113.265 153.617 113.265V114.015ZM124.608 143.024C124.608 127.003 137.596 114.015 153.617 114.015V113.265C137.181 113.265 123.858 126.589 123.858 143.024H124.608ZM153.617 172.033C137.596 172.033 124.608 159.045 124.608 143.024H123.858C123.858 159.46 137.181 172.783 153.617 172.783V172.033ZM176.845 143.024C176.845 155.853 166.446 166.253 153.617 166.253V167.003C166.86 167.003 177.595 156.267 177.595 143.024H176.845ZM153.617 119.795C166.446 119.795 176.845 130.195 176.845 143.024H177.595C177.595 129.781 166.86 119.045 153.617 119.045V119.795ZM130.388 143.024C130.388 130.195 140.788 119.795 153.617 119.795V119.045C140.374 119.045 129.638 129.781 129.638 143.024H130.388ZM153.617 166.253C140.788 166.253 130.388 155.853 130.388 143.024H129.638C129.638 156.267 140.374 167.003 153.617 167.003V166.253Z" fill="#1B1D33"/>
<circle opacity="0.3" cx="153.617" cy="143.024" r="23.6037" fill="#E5E6EB" stroke="#1B1D33" stroke-width="0.75"/>
<rect x="76.5906" y="79.8019" width="92" height="8" fill="#E5E6EB"/>
<rect x="76.5906" y="95.8019" width="59" height="8" fill="#E5E6EB"/>
<path d="M157.138 63.6128V34.4475L183.797 63.6128L157.138 63.6128Z" fill="#B0B1B8"/>
<path d="M151.518 61.8886V32.2147L179.434 61.8886H151.518Z" stroke="#1B1D33" stroke-width="0.75"/>
<path d="M179.888 62.2637V64.8298" stroke="#1B1D33" stroke-width="0.75"/>
<path d="M214.6 76.5106L218.164 72.8196" stroke="#1B1D33" stroke-width="0.750316"/>
<path d="M217.018 80.2015L228.982 78.0378" stroke="#1B1D33" stroke-width="0.750316"/>
<circle cx="194.427" cy="83.7016" r="8.59108" fill="#EDEDF0"/>
<circle cx="214.918" cy="96.0473" r="3.75456" fill="#EDEDF0"/>
<path d="M210.528 73.9651L214.728 60.7285" stroke="#1B1D33" stroke-width="0.750316"/>
<circle cx="24.9031" cy="170.447" r="7.44189" fill="#EDEDF0"/>
<circle cx="3.12939" cy="3.12939" r="3.12939" transform="matrix(1 0 0 -1 19.2844 191.234)" fill="#EDEDF0"/>
<circle cx="2.35742" cy="2.35742" r="2.35742" transform="matrix(1 0 0 -1 33.1169 189.68)" fill="#EDEDF0"/>
<path d="M11.0886 185.93L15.9253 189.13" stroke="#1B1D33" stroke-width="0.750316"/>
<path d="M16.3521 192.473L11.0178 196.314" stroke="#1B1D33" stroke-width="0.750316"/>
<path d="M21.0464 195.532L19.6951 201.222" stroke="#1B1D33" stroke-width="0.750316"/>
</svg>
