<svg width="240" height="241" viewBox="0 0 240 241" fill="none" xmlns="http://www.w3.org/2000/svg">
<path d="M49.6874 204.202L68.1537 172.636L86.1467 204.202H49.6874Z" fill="#B0B1B8"/>
<path d="M45.8772 205.861L65.1898 172.847L84.0073 205.861H45.8772Z" stroke="black" stroke-width="0.75"/>
<rect x="63.0166" y="184.885" width="3.88142" height="11.6443" rx="1.94071" fill="white"/>
<circle cx="64.8267" cy="200.095" r="1.84121" fill="white"/>
<rect x="156.055" y="153.366" width="12.3872" height="15.97" fill="#E5E6EB" stroke="#1B1D33" stroke-width="0.75"/>
<rect x="159.639" y="136.645" width="5.22144" height="16.9039" fill="#E5E6EB" stroke="#1B1D33" stroke-width="0.75"/>
<path fill-rule="evenodd" clip-rule="evenodd" d="M162.251 168.94C182.156 168.94 198.293 185.211 198.293 205.283L198.288 205.861L-nan -nanL198.288 205.861L126.791 205.86C126.472 205.86 126.212 205.602 126.21 205.283C126.21 185.412 142.025 169.266 161.655 168.945L162.251 168.94Z" fill="white" stroke="#1B1D33" stroke-width="0.75"/>
<path fill-rule="evenodd" clip-rule="evenodd" d="M162.252 172.557C179.794 172.557 194.014 186.896 194.014 204.585L194.01 205.094L-nan -nanL194.01 205.094L131.002 205.093C130.72 205.093 130.492 204.866 130.489 204.585C130.489 187.073 144.427 172.844 161.726 172.561L162.252 172.557Z" fill="#E5E6EB" stroke="#1B1D33" stroke-width="0.75"/>
<path fill-rule="evenodd" clip-rule="evenodd" d="M93.2406 134.742C92.0121 134.083 90.9299 133.247 90.013 132.229C80.5653 121.736 92.2383 95.8237 116.085 74.3517C139.932 52.8798 166.923 43.9793 176.371 54.472C177.195 55.3877 177.859 56.421 178.368 57.5584C198.718 81.1746 196.978 116.539 174.374 137.573L173.673 138.215C150.503 159.077 114.848 157.408 93.2406 134.742Z" fill="#B0B1B8"/>
<path d="M168.668 53.6755C190.514 77.9384 189.003 114.997 165.449 136.915L164.728 137.575C140.728 159.185 103.693 157.271 81.5427 133.45L80.8777 132.722" stroke="#1B1D33" stroke-width="0.75" stroke-linecap="round"/>
<path d="M79.0266 131.172C76.6817 128.567 75.6267 124.986 75.7668 120.694C75.9069 116.401 77.244 111.421 79.6558 106.067C84.4789 95.3602 93.5695 83.2261 105.794 72.2188C118.019 61.2115 131.037 53.439 142.189 49.7615C147.766 47.9226 152.858 47.1133 157.143 47.4228C161.426 47.7321 164.877 49.1557 167.222 51.76C169.567 54.3642 170.622 57.9459 170.482 62.2371C170.342 66.5308 169.005 71.511 166.593 76.8648C161.77 87.5713 152.679 99.7054 140.454 110.713C128.23 121.72 115.212 129.493 104.06 133.17C98.4831 135.009 93.3905 135.818 89.1056 135.509C84.8233 135.199 81.3715 133.776 79.0266 131.172Z" stroke="#1B1D33" stroke-width="0.75"/>
<mask id="mask0_2917_11226" style="mask-type:luminance" maskUnits="userSpaceOnUse" x="75" y="46" width="96" height="90">
<ellipse cx="123.124" cy="91.4658" rx="59.7144" ry="26.2743" transform="rotate(138 123.124 91.4658)" fill="white"/>
</mask>
<g mask="url(#mask0_2917_11226)">
<path fill-rule="evenodd" clip-rule="evenodd" d="M147.786 110.928L141.573 116.522L105.942 73.0722L108.298 70.951L147.786 110.928Z" fill="#1B1D33"/>
</g>
<ellipse cx="103.878" cy="69.3038" rx="5.97144" ry="6.56858" transform="rotate(138 103.878 69.3038)" fill="#1B1D33"/>
<rect x="124.632" y="201.278" width="75.2377" height="4.58287" fill="#B0B1B8" stroke="#1B1D33" stroke-width="0.75"/>
<path d="M96.5023 62.2775C98.625 60.1123 101.401 58.7122 104.397 58.289L103.563 51.0282C99.0623 51.6233 94.7211 53.6678 91.2926 57.1542L91.2922 57.1546C87.9898 60.5032 85.9083 64.8598 85.3745 69.5252L92.6466 70.2376C93.0195 67.2355 94.373 64.4362 96.5023 62.2775ZM96.5023 62.2775C96.5024 62.2773 96.5025 62.2772 96.5027 62.277L96.7697 62.5404L96.5019 62.2779C96.502 62.2777 96.5021 62.2776 96.5023 62.2775ZM65.9151 67.6183L58.6441 66.9075C59.769 56.1275 64.5277 46.0463 72.1439 38.3244L72.1443 38.324C80.0563 30.2783 90.1065 25.6141 100.498 24.3473L101.33 31.6048C92.2313 32.7225 83.7766 36.8958 77.3538 43.4474C77.3538 43.4474 77.3537 43.4475 77.3536 43.4476L77.6214 43.7101L65.9151 67.6183ZM79.2793 68.9288L72.0081 68.2165C72.8379 60.4936 76.2584 53.2747 81.718 47.7395L81.7184 47.7391C87.3878 41.974 94.5834 38.6195 102.03 37.6856L102.864 44.9451C96.8164 45.7161 91.2006 48.5036 86.9277 52.8628C82.4785 57.3873 79.9328 63.0746 79.2793 68.9288ZM100.867 66.5694C102.054 65.3618 103.544 64.6304 105.095 64.3755L105.918 71.5371L98.7454 70.8344C98.9798 69.2265 99.7211 67.7315 100.866 66.5697L100.867 66.5694Z" stroke="#1B1D33" stroke-width="0.75"/>
<path d="M206.65 205.861L32.7546 205.861" stroke="#1B1D33" stroke-width="0.75"/>
<circle cx="47.2843" cy="133.537" r="3.97102" fill="#EDEDF0"/>
<circle cx="61.9011" cy="157.482" r="3.05615" fill="#EDEDF0"/>
<path d="M40.0623 105.04L47.6731 106.839" stroke="#1B1D33" stroke-width="0.750316"/>
<path d="M37.1565 119.846L44.0752 114.034" stroke="#1B1D33" stroke-width="0.750316"/>
<path d="M51.1326 122.475L54.7302 115.141" stroke="#1B1D33" stroke-width="0.750316"/>
<circle cx="146.25" cy="23.6521" r="3.58224" fill="#EDEDF0"/>
<circle cx="156.876" cy="37.3738" r="2.65018" fill="#EDEDF0"/>
<path d="M170.738 35.1505L172.746 39.9197" stroke="#1B1D33" stroke-width="0.750316"/>
<path d="M182.619 31.0508L179.941 39.5014" stroke="#1B1D33" stroke-width="0.750316"/>
<path d="M191.571 37.4933L187.22 41.0074" stroke="#1B1D33" stroke-width="0.750316"/>
<circle cx="141.815" cy="39.0473" r="4.4346" fill="#EDEDF0"/>
</svg>
